<mxfile host="app.diagrams.net" modified="2023-08-23T16:32:46.006Z" agent="Mozilla/5.0 (Windows NT 10.0; Win64; x64) AppleWebKit/537.36 (KHTML, like Gecko) Chrome/116.0.0.0 Safari/537.36" version="21.6.6" etag="b9OzaaUcSp2fxtRE5zYg" type="github">
  <diagram name="PÃ¡gina-1" id="2zMLYUgNGX2i7f1FgNo9">
    <mxGraphModel>
      <root>
        <mxCell id="0" />
        <mxCell id="1" parent="0" />
      </root>
    </mxGraphModel>
  </diagram>
</mxfile>
